<svg width="54" height="54" viewBox="0 0 54 54" fill="none" xmlns="http://www.w3.org/2000/svg">
<circle cx="27" cy="27" r="27" fill="#424242"/>
<path d="M28.6219 15.3233C28.2402 15.3927 27.9799 15.7397 28.0493 16.1215C28.0493 16.1388 28.0493 16.1562 28.0667 16.1909C28.1881 16.7288 28.5872 16.7982 28.7607 16.7982C28.8127 16.7982 28.8475 16.7982 28.8475 16.7982C29.2292 16.7461 29.4894 16.3817 29.4374 16V15.9827V15.9653C29.42 15.5836 29.1077 15.2886 28.726 15.306C28.6913 15.306 28.6566 15.3233 28.6219 15.3233Z" fill="#6F6F6F"/>
<path d="M16.5283 37.7062C16.5109 37.6368 16.4762 37.5674 16.4589 37.4979C16.3374 37.1336 15.9557 36.9254 15.5913 37.0468C15.227 37.1683 15.0187 37.55 15.1402 37.9144C15.1749 38.0011 15.1923 38.0705 15.227 38.1573C15.3311 38.4349 15.5913 38.6258 15.8863 38.6258C15.9557 38.6258 16.0425 38.6084 16.1119 38.5911C16.4589 38.4696 16.6497 38.0705 16.5283 37.7062Z" fill="#6F6F6F"/>
<path d="M37.5231 29.9849C37.3323 29.7941 37.1414 29.5859 36.9679 29.395L37.0546 29.1868L36.4127 28.9265C36.1871 28.8398 35.8921 28.6316 35.5798 28.406C35.6145 28.3366 35.6492 28.2672 35.6492 28.1978L38.4601 11.9919C38.5989 11.2284 38.4254 10.4476 37.9743 9.82298C37.5231 9.18099 36.8638 8.76456 36.1003 8.62575C35.3369 8.48695 34.5561 8.66046 33.9314 9.11159C33.2895 9.56271 32.873 10.2221 32.7342 11.0029C32.7169 11.0549 31.832 16.4164 31.5196 18.0821C31.5196 18.1168 31.5196 18.1342 31.5196 18.1689C31.4329 18.2556 31.3808 18.3771 31.3461 18.4985C31.0512 20.0601 30.7909 21.4829 30.5653 22.6454C30.3571 21.4135 30.0795 19.7825 29.7845 17.9953C29.7151 17.6136 29.3681 17.3534 28.9864 17.4228C28.6047 17.4922 28.3617 17.8392 28.4138 18.2209C29.0558 22.0208 29.5763 25.0919 29.5763 25.1266C29.6284 25.3869 29.8192 25.5951 30.0622 25.6645C30.0795 25.7513 30.1142 25.8207 30.1663 25.8901C29.9407 25.9248 29.6978 25.9595 29.4722 25.9768C28.4312 26.133 27.4421 26.2718 26.4878 26.1677L26.3664 25.3349V22.7148C26.3664 22.0208 26.1061 21.3788 25.6723 20.8756L24.1628 11.1417C24.0934 10.7426 24.1975 10.3435 24.4404 10.0138C24.6833 9.68417 25.0303 9.47596 25.4294 9.40655C25.8285 9.33715 26.2276 9.44126 26.5572 9.68417C26.8869 9.92709 27.0951 10.2741 27.1645 10.6905C27.1645 10.6905 27.4421 12.4083 27.7371 14.1087C27.8065 14.4904 28.1535 14.7507 28.5353 14.6813C28.917 14.6119 29.1599 14.2649 29.1078 13.8831C28.8302 12.1827 28.5353 10.465 28.5353 10.465C28.4138 9.70152 27.9974 9.02483 27.3727 8.55635C26.7481 8.10522 25.9846 7.91436 25.2038 8.03582C24.4404 8.15728 23.7637 8.5737 23.2952 9.19834C22.8441 9.82298 22.6532 10.5864 22.7747 11.3672L24.1107 19.9213C23.8331 19.8519 23.5555 19.7999 23.2605 19.7999C21.8898 19.7999 20.7099 20.6501 20.3108 21.8299C19.7383 21.3441 18.9575 21.0491 18.0899 21.0491C16.3201 21.0491 14.8626 22.3505 14.8626 23.9641C14.8626 24.1897 14.8452 24.4499 14.8452 24.7102C14.8105 25.7166 14.7585 26.9832 15.1055 28.059C15.0361 28.1457 15.0014 28.2498 14.9841 28.3713C14.8105 29.7767 14.8105 33.0214 14.8105 34.9647C14.8105 35.1382 14.8105 35.3117 14.8279 35.4852C14.8452 35.8496 15.1576 36.1446 15.5219 36.1446C15.5393 36.1446 15.5393 36.1446 15.5566 36.1446C15.9384 36.1272 16.2333 35.7976 16.216 35.4158C16.216 35.277 16.1986 35.1209 16.1986 34.9647C16.1986 33.4899 16.1986 31.2342 16.268 29.69C16.4763 29.8288 16.7018 29.9329 16.9621 30.0196C17.3959 30.1585 17.8296 30.2452 18.2114 30.2452C18.9575 30.2452 19.8771 29.9676 20.5364 28.8571C20.7793 29.343 21.1437 29.8288 21.7683 30.2279L22.3583 30.6096L22.393 30.5575C23.4687 31.3383 24.9262 31.5465 25.4294 31.5986C25.6376 31.6159 25.8458 31.6333 26.0541 31.6333L26.4358 31.7027C26.696 31.7374 27.1125 31.7895 27.5983 31.7895C27.7545 31.7895 27.9106 31.7895 28.0841 31.7721C28.4138 31.8415 28.7088 31.9803 28.9517 32.1885C29.1599 32.3794 29.3855 32.6744 29.6284 32.9867C30.0795 33.5593 30.5827 34.236 31.2767 34.6003C31.2594 34.6177 31.242 34.635 31.2247 34.6697C30.843 35.1903 30.4439 35.7455 30.201 36.3354L29.9407 36.9774L31.2247 37.498L31.4849 36.856C31.6585 36.4222 32.0055 35.9537 32.3525 35.5026C32.5781 35.1903 32.821 34.878 33.0118 34.5656C33.1506 34.3574 33.1506 34.0798 33.0118 33.8542C32.8904 33.6287 32.6475 33.5072 32.4046 33.5072C31.7799 33.5246 31.242 32.8305 30.7215 32.1538C30.4612 31.8068 30.201 31.4945 29.9233 31.2342C29.9407 31.2169 29.958 31.2169 29.9754 31.1995L30.548 30.8004L29.7325 29.6726L29.1772 30.0717C28.9343 30.2452 28.5873 30.3493 28.1535 30.4014C27.6157 30.3146 27.0778 30.2973 26.5572 30.2973C26.4358 30.2973 26.3143 30.2973 26.2102 30.2973L26.002 30.2626V30.2973C25.8632 30.2973 25.7244 30.2799 25.6029 30.2799C24.5792 30.1758 23.3299 29.7767 22.8615 29.1174C22.7053 28.8918 22.5318 28.5448 22.6185 28.2151C22.7053 27.9028 23.035 27.6252 23.4861 27.4517C23.8852 27.3129 24.6833 27.3476 25.0997 27.3996L25.2733 27.417L25.4641 27.469C26.9043 27.8334 28.327 27.6425 29.7151 27.4343C30.2877 27.3476 30.843 27.2782 31.3808 27.2435C31.832 27.2088 32.4393 27.6946 32.9598 28.1284C33.1506 28.2845 33.3589 28.458 33.5671 28.5969C33.7232 28.701 33.9314 28.8745 34.1397 29.048C34.6775 29.4991 35.3022 30.0023 35.8748 30.2452C36.1003 30.5228 36.3432 30.7657 36.5862 31.0087C37.2976 31.7374 37.8007 32.2579 37.8007 33.4205C37.8007 38.487 32.9077 44.6119 26.8522 44.6119C23.0176 44.6119 19.478 42.7206 17.6041 39.7016C17.3959 39.3719 16.9794 39.2678 16.6498 39.476C16.3201 39.6842 16.216 40.1006 16.4242 40.4303C18.5584 43.8658 22.5491 46 26.8522 46C29.9407 46 33.0986 44.5252 35.5104 41.9745C37.8528 39.4933 39.1888 36.3875 39.1888 33.4205C39.1368 31.6333 38.2692 30.7484 37.5231 29.9849ZM19.9638 23.9815C19.9638 24.849 19.9638 26.1677 19.6862 27.2435C19.2698 28.8398 18.5063 28.8398 18.2114 28.8398C17.9684 28.8398 17.7082 28.7877 17.3959 28.6836C16.1986 28.3019 16.1466 26.6882 16.216 24.7623C16.2333 24.4673 16.2333 24.207 16.2333 23.9641C16.2333 23.1313 17.0662 22.4372 18.0899 22.4372C19.1136 22.4372 19.9465 23.1139 19.9465 23.9641V23.9815H19.9638ZM22.9482 26.0636C22.3409 26.2892 21.8551 26.6535 21.5428 27.0873C21.5428 26.9138 21.5428 26.7403 21.5428 26.5494C21.5428 26.4106 21.5428 26.2892 21.5428 26.1677V22.6975C21.5428 21.8646 22.3062 21.1706 23.2432 21.1706C23.6596 21.1706 24.0413 21.3094 24.3363 21.535L24.9436 25.4216V25.8901C24.5098 25.8727 23.5902 25.8207 22.9482 26.0636ZM33.7753 26.9832C33.0812 26.4106 32.2831 25.786 31.3635 25.786C31.3808 25.7339 31.3982 25.6992 31.4155 25.6472C31.4155 25.6125 32.0055 22.5587 32.6995 18.7761C32.6995 18.7414 32.6995 18.7241 32.6995 18.6894C32.7863 18.6026 32.8383 18.4812 32.873 18.3597C33.1854 16.6767 34.0703 11.3152 34.0876 11.2631C34.157 10.864 34.3826 10.517 34.7122 10.2741C35.0419 10.0312 35.441 9.94444 35.8574 10.0138C36.2565 10.0832 36.6035 10.3088 36.8464 10.6385C37.0893 10.9682 37.1761 11.3672 37.1067 11.7837L34.3652 27.4343C34.3479 27.417 34.3305 27.417 34.3132 27.3996C34.157 27.2782 33.9662 27.122 33.7753 26.9832Z" fill="#6F6F6F"/>
</svg>
