<svg width="54" height="54" viewBox="0 0 54 54" fill="none" xmlns="http://www.w3.org/2000/svg">
<circle cx="27" cy="27" r="27" fill="#424242"/>
<path d="M41.9989 31.2722C41.942 28.997 40.501 27.9921 39.9322 27.6698C40.3873 27.101 40.7096 26.3615 40.6906 25.3946C40.6906 23.4607 39.1928 22.5316 38.3965 22.3041L38.0931 22.2093C38.0173 22.1903 37.9414 22.1524 37.8466 22.1335L37.676 22.0766V22.0955C36.9745 21.9628 35.8748 21.9439 34.9837 21.9628C34.339 21.9628 33.8082 21.9628 33.391 21.9818H32.6326C32.6326 21.9818 32.6326 21.9818 32.6137 21.9818C32.1776 21.9818 31.969 21.9818 31.969 21.9818H31.8932L31.5898 21.9249C29.3526 21.4509 28.8027 20.8442 28.689 20.6546C28.3098 20.0858 29.0113 18.2467 29.4094 17.2608C29.618 16.7109 29.8076 16.218 29.9024 15.8388C30.4143 13.6204 30.585 11.8192 29.8834 9.60092C29.1819 7.5722 27.8358 6.11228 26.1483 5.5814C25.2951 5.31596 24.423 5.31596 23.6456 5.56244H23.6266C23.4181 5.63828 23.2095 5.71412 23.0199 5.82788L22.9441 5.8658C22.6597 5.97956 22.4322 6.1502 22.2426 6.3398L21.9202 6.58628L21.9961 6.70004C21.4273 7.72388 21.7306 9.24068 21.9392 10.3404C21.9961 10.6437 22.053 10.9281 22.0719 11.1367C22.2994 13.0706 21.3514 14.8528 20.2707 16.4834C19.209 18.095 16.1943 20.4081 15.0567 21.2803C11.7577 23.8019 12.0042 26.2288 12.0042 26.3426L12.099 27.101L13.6158 26.9303L13.521 26.1719C13.521 26.0961 13.4262 24.4276 15.9668 22.4747C17.9955 20.939 20.4603 18.9482 21.541 17.3176C22.3184 16.1421 23.93 13.7152 23.5887 10.966C23.5508 10.7006 23.4939 10.3972 23.437 10.0749C23.2664 9.24068 23.0199 7.93244 23.3612 7.43948L23.437 7.3826C23.5129 7.32572 23.5887 7.26884 23.6646 7.23092L24.1196 7.04132C24.6126 6.88964 25.1434 6.88964 25.6933 7.06028C26.9067 7.43948 27.8926 8.55812 28.3856 10.0939C28.9923 11.9899 28.8406 13.5067 28.3856 15.5164C28.3287 15.8008 28.1391 16.2559 27.9495 16.7299C27.3428 18.3225 26.5844 20.2943 27.3807 21.5078C27.5703 21.7732 27.8168 22.0387 28.1581 22.2662C26.5465 22.6075 25.7122 24.1053 25.5985 25.4704C25.5226 26.4184 25.7691 27.2716 26.2621 27.8594C24.9918 28.2575 24.1575 29.3383 24.1006 30.7982C24.0438 32.0306 24.6126 33.4336 25.7502 34.0214C25.6364 34.1541 25.5416 34.3058 25.4658 34.4764C24.859 35.633 24.9918 37.3015 25.7691 38.4201C26.1104 38.9131 26.5654 39.2733 27.0774 39.4629C26.5844 40.5057 26.5465 41.4537 26.9636 42.269C27.1153 42.5723 27.3238 42.8378 27.5703 43.0653C20.8206 43.4445 16.1754 42.1363 14.1277 39.2543L13.6916 38.6287L12.4592 39.5008L12.8953 40.1265C15.0188 43.1032 19.19 44.62 25.2762 44.62C26.3948 44.62 27.5893 44.5631 28.8406 44.4683L29.599 44.4115L29.5801 44.0891C29.9024 44.1839 30.1489 44.2219 30.2058 44.2219L30.9642 44.3356L31.1727 42.8378L30.4143 42.724C29.9972 42.6671 28.7079 42.3259 28.3287 41.5485C28.1202 41.1124 28.196 40.5436 28.5752 39.8421L28.689 39.6146C29.4284 39.6715 31.021 39.7663 33.884 39.8042C34.3201 39.8042 34.7182 39.8231 35.0785 39.8231C35.8938 39.8231 36.5384 39.8042 36.9745 39.7663C37.3158 39.7473 37.7329 39.7094 38.0173 39.4819L37.8846 39.6715C37.8846 39.6715 37.8656 39.6715 37.8466 39.6335C37.8466 39.6335 38.2069 39.9748 38.2069 41.1503C38.2069 42.4017 36.7659 42.6861 36.5384 42.724C36.5005 42.724 36.4436 42.724 36.4057 42.724H35.6473H32.7274V44.2408H36.6711H37.3916V44.0891C38.4344 43.7479 39.7426 42.8947 39.7426 41.1693C39.7426 40.0696 39.4772 39.3871 39.2307 38.9699C40.046 38.477 40.8613 37.6617 40.8423 36.3155C40.8423 35.2538 40.6717 34.6281 40.4442 34.2299C41.1646 33.6991 42.0368 32.789 41.9989 31.2722ZM27.1153 25.5652C27.1722 24.8258 27.5703 23.9157 28.4804 23.7261C28.7648 23.7071 30.7935 23.5934 31.9122 23.5365L31.988 23.5555V23.5365C32.2724 23.5175 32.4999 23.5175 32.5947 23.5175C33.0877 23.5175 33.865 23.5175 35.0026 23.5175C36.5384 23.4986 37.221 23.5934 37.4674 23.6503L37.9983 23.8019C38.0173 23.8019 39.1738 24.1432 39.1738 25.4515C39.1738 27.0631 37.7518 27.4991 37.5812 27.556L37.5243 27.575C37.2968 27.6508 36.9555 27.7456 36.8418 27.7456H36.0834H30.9262H30.1678C29.3336 27.7456 28.2718 27.3475 27.9116 27.2147L27.8168 27.1768C27.267 26.9303 27.0774 26.2099 27.1153 25.5652ZM39.1359 33.2251C38.8894 33.2251 38.3965 33.2251 38.1879 33.2251H37.4295V33.244H37.2778C37.2399 33.244 36.1023 33.2061 33.8461 33.244C31.7984 33.2819 30.4522 33.244 30.4333 33.244L29.6749 33.2251L29.637 34.7419L30.3954 34.7608C30.4522 34.7608 31.7794 34.7987 33.865 34.7608C36.0834 34.7229 37.202 34.7608 37.221 34.7608L37.9794 34.7798V34.7419H38.1879C38.2827 34.7419 38.4723 34.7419 38.643 34.7419L39.1738 35.0073C39.2307 35.14 39.3445 35.5003 39.3445 36.2966C39.3445 37.6617 37.3916 38.0978 37.3726 38.0978L36.5005 38.2874C36.0075 38.3063 35.2112 38.3253 33.9409 38.3063C29.7886 38.2495 28.3666 38.0788 28.3666 38.0788L28.2718 38.0599L28.177 38.0788C27.722 38.1357 27.3428 37.9651 27.0394 37.5479C26.5844 36.8843 26.4896 35.8415 26.8309 35.1779C27.0394 34.7798 27.3618 34.5712 27.8168 34.5333L28.3287 34.5523V34.5333H28.7269V33.0165H27.9685C27.9116 33.0165 27.8358 33.0165 27.7789 33.0165H27.6272C27.5514 33.0165 27.3238 32.9407 27.1911 32.9027C27.0205 32.8459 26.8688 32.789 26.7171 32.77C25.9966 32.6373 25.5985 31.6893 25.6364 30.893C25.6554 30.4569 25.826 29.471 26.9636 29.2814H30.1868H30.9452H39.553C39.9322 29.5847 40.4631 30.2294 40.501 31.367C40.52 32.5046 39.4582 33.0734 39.1359 33.2251Z" fill="#6F6F6F"/>
<path d="M12.6869 30.2863L14.1658 29.9261L13.9951 29.1866C13.9572 29.0539 13.9383 28.9212 13.9193 28.7695L13.8435 28.0111L12.3267 28.1628L12.4025 28.9212C12.4215 29.1297 12.4594 29.3383 12.5163 29.5469L12.6869 30.2863Z" fill="#6F6F6F"/>
</svg>
