<svg width="54" height="54" viewBox="0 0 54 54" fill="none" xmlns="http://www.w3.org/2000/svg">
<circle cx="27" cy="27" r="27" fill="#424242"/>
<path d="M31.7048 15.5289C31.723 15.9283 32.0315 16.255 32.4308 16.255C32.5579 16.255 33.1387 16.2187 33.1568 15.42C33.1568 15.0207 32.8483 14.694 32.4308 14.694C32.3945 14.694 32.3582 14.694 32.3401 14.694C31.9408 14.7303 31.6504 15.0933 31.7048 15.4926C31.7048 15.4926 31.7048 15.5108 31.7048 15.5289Z" fill="#6F6F6F"/>
<path d="M15.1876 38.8522C15.1513 38.7796 15.1331 38.6889 15.115 38.6163C14.9879 38.2351 14.5886 38.0355 14.2075 38.1444C13.8263 38.2714 13.6085 38.6707 13.7356 39.0519C13.7719 39.1426 13.79 39.2334 13.8263 39.3241C13.9352 39.6146 14.2075 39.8142 14.516 39.8142C14.5886 39.8142 14.6794 39.7961 14.752 39.7779C15.1331 39.6509 15.3328 39.2334 15.1876 38.8522Z" fill="#6F6F6F"/>
<path d="M38.8012 30.1763C38.5653 29.9404 38.3656 29.7226 38.1478 29.4866L38.2386 29.2688L38.1841 29.2507V9.21262C38.2023 7.45203 36.7502 6 34.9715 6C33.1928 6 31.7589 7.45203 31.7589 9.21262C31.7589 9.21262 31.7407 11.1729 31.7226 13.115C31.7226 13.5143 32.0311 13.841 32.4486 13.841C32.8479 13.841 33.1746 13.5143 33.1746 13.115C33.1928 11.1729 33.2109 9.21262 33.2109 9.21262C33.2109 8.2325 34.0095 7.45203 34.9715 7.45203C35.9335 7.45203 36.7321 8.25065 36.7321 9.21262V28.4883C36.4598 28.2887 36.1876 28.0527 35.9335 27.8531C35.6794 27.6353 35.4253 27.4356 35.2075 27.2723C35.0078 27.1271 34.8081 26.9637 34.6085 26.8003C34.1184 26.401 33.5921 25.9836 33.0113 25.7113C33.0113 25.6932 33.0113 25.675 33.0113 25.675C33.0113 25.6387 33.0657 22.1357 33.1202 17.8159C33.1202 17.4166 32.8116 17.0899 32.3941 17.0899C31.9948 17.0717 31.6681 17.3984 31.6681 17.8159C31.6681 18.3423 31.65 18.8686 31.65 19.3768C31.0147 18.6508 30.0709 18.1789 29 18.1789C27.4935 18.1789 26.223 19.1046 25.7693 20.3751C25.1703 19.395 24.0813 18.7597 22.8107 18.7597C21.2498 18.7597 19.943 19.7398 19.5255 21.083C18.8721 20.5203 17.9827 20.1573 17.0026 20.1573C15.0242 20.1573 13.4088 21.6093 13.4088 23.3699C13.4088 23.624 13.3907 23.9144 13.3907 24.223C13.3544 25.3483 13.2999 26.8003 13.6992 27.9983C13.6266 28.1072 13.5722 28.2161 13.554 28.3613C13.3725 29.9222 13.3725 33.5704 13.3725 35.7485C13.3725 35.9481 13.3725 36.1296 13.3907 36.3293C13.4088 36.7105 13.7355 37.019 14.1167 37.019C14.1349 37.019 14.1349 37.019 14.153 37.019C14.5523 37.0009 14.8609 36.656 14.8427 36.2567C14.8427 36.0933 14.8246 35.93 14.8246 35.7485C14.8246 34.0605 14.8246 31.465 14.9153 29.7226C15.1513 29.8859 15.4417 30.0311 15.7502 30.14C16.2403 30.3034 16.7122 30.3941 17.1297 30.3941C17.9646 30.3941 19.0173 30.0856 19.7433 28.7787C20.1608 29.65 21.2317 30.6482 22.3207 30.6482C22.4296 30.6482 22.5203 30.6482 22.6292 30.6119C23.5368 31.5739 24.7891 31.9188 25.6603 32.0458V32.0821L26.3864 32.191C26.6405 32.2273 26.9309 32.2455 27.2394 32.2455C27.4209 32.2455 27.6206 32.2273 27.8021 32.2092C28.4918 32.2636 29.1089 32.3362 29.4175 32.4633C29.726 32.5903 30.089 33.1167 30.4158 33.5886C30.8151 34.1513 31.2688 34.8228 31.9041 35.204C31.8678 35.2584 31.8133 35.3129 31.777 35.3673C31.3414 35.9481 30.8877 36.5653 30.6336 37.2187L30.3613 37.8902L31.7044 38.4347L31.9767 37.7632C32.1763 37.2731 32.5756 36.7468 32.9568 36.2204C33.2109 35.8755 33.465 35.5125 33.6828 35.1677C33.828 34.9499 33.828 34.6595 33.6828 34.4235C33.5558 34.2057 33.3198 34.0605 33.0476 34.0605H33.0294C32.5575 34.0605 32.1582 33.5341 31.6137 32.7355C31.2507 32.2092 30.8514 31.6646 30.3613 31.3198L30.8877 30.9386L30.0346 29.7589L29.4538 30.1763C29.0545 30.4667 28.4555 30.6482 27.8202 30.7208C27.6387 30.7027 27.4754 30.6845 27.2939 30.6845C26.9309 30.6482 26.5679 30.6301 26.1867 30.5938C25.6059 30.5393 24.1902 30.3034 23.4642 29.2688C23.2826 28.9965 23.0648 28.5972 23.1919 28.1979C23.3008 27.8349 23.6638 27.5082 24.2083 27.3086C24.5713 27.1815 24.8799 27.1089 25.0795 27.0908L25.261 27.1452C26.8764 27.5627 28.4737 27.3267 30.0164 27.1089C30.6699 27.0182 31.287 26.9274 31.8859 26.8911C32.4123 26.8548 33.102 27.4175 33.701 27.9075C33.9188 28.089 34.1547 28.2705 34.3725 28.4339C34.554 28.5609 34.7718 28.7424 35.026 28.9421C35.6431 29.4503 36.3328 30.013 36.9862 30.2852C37.2403 30.6119 37.5126 30.8842 37.7848 31.1564C38.5653 31.9551 39.1642 32.5722 39.1642 33.9153C39.1642 39.6327 33.6465 46.548 26.8038 46.548C22.484 46.548 18.4728 44.4244 16.3492 40.9939C16.1314 40.6491 15.6958 40.5402 15.3509 40.758C15.0061 40.9758 14.8972 41.4114 15.115 41.7563C17.4927 45.6041 21.9758 48 26.8038 48C30.2705 48 33.8099 46.3483 36.5143 43.4806C39.1279 40.7035 40.6344 37.2187 40.6344 33.8971C40.5981 32.0095 39.6543 31.0294 38.8012 30.1763ZM19.1625 23.4062C19.1625 24.3863 19.1625 25.8747 18.8358 27.0908C18.4002 28.7243 17.656 28.9239 17.1297 28.9239C16.8574 28.9239 16.5489 28.8695 16.204 28.7606C14.8246 28.3068 14.7701 26.4555 14.8609 24.2774C14.879 23.9507 14.879 23.6422 14.879 23.3699C14.879 22.3898 15.841 21.6093 17.0208 21.6093C18.2005 21.6093 19.1625 22.408 19.1625 23.3699V23.4062ZM23.682 25.9836C22.7018 26.3466 22.0121 27.0182 21.7762 27.8349C21.7036 28.1072 21.6491 28.4702 21.7217 28.9058C21.4313 28.688 21.1409 28.3613 21.032 28.0709C20.8323 27.5627 20.8323 26.9637 20.8505 26.3466C20.8505 26.1832 20.8505 26.038 20.8505 25.8747V21.9723C20.8505 20.9922 21.7399 20.2118 22.8107 20.2118C23.8816 20.2118 24.771 21.0104 24.771 21.9723V25.6932C24.4987 25.7476 24.1176 25.8384 23.682 25.9836ZM29.7986 25.7113C28.8367 25.8565 27.9291 25.9836 27.0398 25.9654V21.3734C27.0398 20.3933 27.9291 19.6128 29 19.6128C30.0709 19.6128 30.9603 20.4114 30.9603 21.3734V25.548C30.5791 25.6024 30.1798 25.6569 29.7986 25.7113Z" fill="#6F6F6F"/>
</svg>
