<svg width="54" height="54" viewBox="0 0 54 54" fill="none" xmlns="http://www.w3.org/2000/svg">
<circle cx="27" cy="27" r="27" fill="#424242"/>
<mask id="mask0" mask-type="alpha" maskUnits="userSpaceOnUse" x="0" y="0" width="54" height="54">
<circle cx="27" cy="27" r="27" fill="#424242"/>
</mask>
<g mask="url(#mask0)">
<path d="M48.5918 11.975L48.6465 11.7742L48.2814 11.6828L48.1719 11.5915L48.1171 11.6463L47.9346 11.5915C46.748 11.2811 45.7074 11.3541 44.6851 11.4089C43.7176 11.4637 42.8048 11.5185 41.746 11.2811C40.7237 11.0437 39.8292 10.8246 39.0625 10.6237C37.0179 10.1124 35.7766 9.78368 34.882 10.1672C33.4764 10.7515 27.7807 14.4951 26.941 15.956C26.5942 16.5768 26.1378 18.2021 25.7362 19.7908C24.2392 18.0743 22.4502 16.1568 21.5922 15.6455C20.15 14.7872 13.3408 14.2942 11.8439 14.4768C10.8764 14.5864 9.96359 15.4629 8.43015 16.9238C7.84598 17.4716 7.18879 18.1108 6.40381 18.8047C5.58232 19.5352 4.76084 19.9552 3.90284 20.3934C2.99007 20.85 2.05905 21.3248 1.1828 22.1648L1.07327 22.2378L0.927226 22.2013L0.854205 22.457L0.635141 22.6578L0.744673 22.7674L-3.8374 37.559L-2.45 37.9972L2.13207 23.2604L2.16859 23.2239C2.88054 22.53 3.68377 22.1282 4.54177 21.69C5.45454 21.2335 6.40381 20.7404 7.37134 19.8821C8.17457 19.1699 8.85002 18.5308 9.43419 17.9647C10.6025 16.8508 11.5335 15.9742 12.0264 15.9194C13.4869 15.7551 19.8762 16.3029 20.862 16.8873C21.4462 17.2342 23.0709 18.9143 25.1155 21.27L25.3345 21.5074C25.3345 21.5256 25.3345 21.5439 25.3163 21.5439L25.0425 21.6169C24.0384 21.9091 23.0891 21.7813 22.2677 21.4708L21.9025 21.3065C20.3508 20.6126 19.3103 19.3525 19.292 19.3343C19.1095 19.1152 18.8174 19.0056 18.5253 19.0786C16.8276 19.5352 14.6369 19.8273 14.0528 19.4804C13.852 19.3525 13.5781 19.3343 13.3591 19.4439C13.14 19.5534 12.994 19.7543 12.9575 19.9917C12.5558 22.6761 10.1461 25.1413 10.1279 25.1779C10.0184 25.2874 9.94534 25.4335 9.92708 25.5979L9.48895 29.104C9.4707 29.3232 9.52546 29.5423 9.68976 29.7066C9.74453 29.7614 10.2922 30.3458 11.1137 31.0945L11.0772 31.2041L11.3145 31.2771C12.8114 32.6467 15.0568 34.5093 16.9371 35.2215C17.0284 35.2581 17.1379 35.2763 17.2292 35.2581C19.7849 35.1302 25.8274 36.3355 26.5942 36.4998C26.941 36.6642 28.6205 37.5955 28.5475 39.586C27.6712 39.8416 26.5394 39.659 25.5353 39.5129C25.0607 39.4399 24.6226 39.3668 24.2027 39.3486C22.6328 39.239 16.9736 39.8599 15.3124 40.5173C13.7789 41.1199 11.2232 42.9095 7.7547 45.393L7.15228 45.813L7.99202 47L8.59444 46.58C11.8621 44.2426 14.4726 42.4164 15.8418 41.8869C17.3022 41.3208 22.7058 40.7181 24.0932 40.8277C24.4583 40.846 24.8782 40.919 25.3163 40.9921C26.5942 41.1929 28.0181 41.4121 29.2959 40.919L29.9714 40.6451L29.9349 40.5538H29.9531L30.0079 39.8233C30.227 36.5363 27.2513 35.2215 27.1236 35.1667C27.087 35.1485 27.0323 35.1302 26.9775 35.1302C26.7037 35.0754 20.2961 33.7424 17.3205 33.8337C15.86 33.2493 14.1258 31.8615 12.7932 30.6745C12.8662 30.4919 12.9392 30.291 13.0122 30.1084C13.3043 29.3962 13.6512 28.5745 13.5964 27.6431C13.6146 27.2962 13.925 26.2553 14.1806 26.0727C15.1481 25.397 15.7505 24.4839 16.0791 23.9909C16.4807 24.0457 17.1562 24.0822 18.0507 23.7535L18.1967 23.6987C18.7261 23.9361 19.3468 24.0457 19.9127 24.0457C20.1318 24.0457 20.3326 24.0274 20.5151 24.0092C20.5882 23.9909 21.866 23.8083 22.5962 23.1326C22.9979 23.2239 23.436 23.2787 23.8741 23.2787C24.2392 23.2787 24.6043 23.2422 24.9877 23.1691C24.9512 23.3517 24.9147 23.4978 24.8964 23.5709L24.7504 24.2831L24.8599 24.3013L24.8416 24.3926L25.5536 24.5935C25.9187 24.7031 26.2656 24.7396 26.5942 24.7396C28.1093 24.7396 29.2959 23.79 30.1904 22.603C30.373 22.6396 30.5738 22.6578 30.7564 22.6578C31.5596 22.6578 32.3446 22.3656 32.3811 22.3474C32.9287 22.1465 33.5129 21.7813 33.9693 21.2882L34.0606 21.27C35.0098 21.1239 35.5575 20.7587 35.8861 20.5213C36.4155 20.7952 37.383 21.3065 38.5514 21.4161C38.8434 21.4526 39.6467 22.2013 39.811 22.4935C40.2308 23.3335 40.9245 23.8813 41.527 24.3744C41.5635 24.4109 41.6 24.4474 41.6548 24.4657C40.9428 25.8353 39.9935 27.4788 39.0625 28.6292C36.4155 29.9988 31.4683 34.2902 31.2492 34.4728C31.2127 34.5093 31.1762 34.5459 31.158 34.5824C31.0667 34.692 29.1134 37.3033 30.9207 40.0425L31.3223 40.6451H31.3405L31.3588 40.7364L32.089 40.6451C33.4399 40.4625 34.59 39.5677 35.594 38.7825C35.9409 38.5085 36.2695 38.2529 36.5798 38.052C37.7481 37.285 42.7501 35.1667 44.3018 34.9476C45.032 34.8563 46.3281 35.0937 47.9528 35.4224C49.3767 35.6963 51.1292 36.0433 53.1008 36.2624L53.831 36.3355L53.9953 34.8746L53.2651 34.8015C51.3666 34.5824 49.7053 34.2719 48.2449 33.9798C46.4011 33.6145 45.0685 33.3589 44.101 33.4867C42.3302 33.7241 37.0909 35.952 35.7766 36.8103C35.4297 37.0476 35.0646 37.3216 34.6995 37.6137C33.8963 38.2346 33.0018 38.9468 32.1072 39.1477C31.0667 37.4494 32.089 35.8241 32.3081 35.5137C32.9105 35.0024 37.5838 30.9849 39.884 29.8527C39.9753 29.8162 40.0483 29.7432 40.1213 29.6701C42.2024 27.2049 44.174 22.6943 44.2653 22.5117C44.3748 22.2743 44.3383 22.0004 44.1922 21.7813L42.0929 18.9325C42.0016 18.8047 41.8556 18.7134 41.7095 18.6586C41.673 18.6404 38.3506 17.6543 36.7076 15.5177C36.5615 15.3168 36.3242 15.2255 36.0869 15.2438C35.8496 15.262 35.6305 15.3899 35.5027 15.609C35.1741 16.1934 33.1113 17.0151 31.3953 17.4534C31.1397 17.5082 30.9389 17.709 30.8659 17.9647C30.8476 18.0195 29.2777 23.3152 26.5029 23.2239C27.014 20.85 27.8538 17.3803 28.2736 16.6316C28.8396 15.6455 34.1336 12.0298 35.5027 11.4637C35.9409 11.2811 37.1822 11.5915 38.7522 11.9933C39.5371 12.1942 40.4317 12.4133 41.4905 12.6507C42.7683 12.9429 43.8089 12.8698 44.8494 12.815C45.7805 12.7603 46.675 12.7055 47.6242 12.9429L58.833 23.6987L59.837 22.6396L48.5918 11.975ZM16.1339 22.5483C15.8783 22.5117 15.4584 22.4387 15.1481 22.7857C15.0568 22.8952 14.9655 23.023 14.8378 23.2057C14.5457 23.6439 14.071 24.3744 13.3226 24.904C12.4281 25.5248 12.0995 27.351 12.1177 27.7344C12.1542 28.3371 11.9169 28.9214 11.6431 29.5788C11.6431 29.5971 11.6248 29.6153 11.6248 29.6519C11.351 29.3779 11.1137 29.1588 10.9676 29.0127L11.3327 26.0909C11.8987 25.4883 13.5964 23.4796 14.2353 21.1056C14.6917 21.1787 15.2029 21.1787 15.7323 21.1421L15.8418 21.2882C16.1339 21.7265 16.499 22.183 16.8458 22.5848C16.5355 22.603 16.3164 22.5665 16.1339 22.5483ZM20.2778 22.5848C19.6571 22.6761 18.7991 22.5483 18.4158 22.1648C18.0689 21.7995 17.6856 21.3613 17.357 20.9047C17.7951 20.8317 18.1785 20.7404 18.4523 20.6674C18.8722 21.1056 19.6754 21.8726 20.7707 22.4752C20.6247 22.5117 20.4421 22.5665 20.2778 22.5848ZM36.0321 17.1064C37.7481 18.8778 40.2126 19.7908 40.9976 20.0465L42.6953 22.3474C42.604 22.5483 42.4762 22.8222 42.312 23.1691C41.8008 22.7674 41.3627 22.4022 41.1071 21.8909C40.9428 21.5439 39.7562 20.1195 38.6791 20.0099C37.7846 19.9186 36.9997 19.5169 36.5433 19.2612C36.3425 19.1517 36.1964 19.0786 36.0686 19.0421C35.6305 18.896 35.2837 19.1517 35.0829 19.316C34.9916 19.3891 34.882 19.4621 34.7543 19.5534C34.7725 19.2612 34.7543 19.0056 34.736 18.7682C34.7178 18.5308 34.6995 18.3117 34.7178 18.0743L34.736 17.8917C35.2106 17.636 35.667 17.3803 36.0321 17.1064ZM32.089 18.823C32.3993 18.7317 32.8009 18.6221 33.2573 18.4577C33.2573 18.6038 33.2756 18.7317 33.2756 18.8595C33.2938 19.1699 33.3304 19.4256 33.2391 19.7178C33.2208 19.7908 33.1843 19.8821 33.1478 19.9552L33.0748 19.9734L33.093 20.0465C32.8192 20.4665 32.2898 20.8317 31.8334 20.9961C31.5961 21.0874 31.304 21.1604 31.0667 21.1787C31.5778 20.2291 31.9064 19.316 32.089 18.823Z" fill="#6F6F6F"/>
<path d="M47.0644 32.8388C47.0407 32.8506 46.8986 32.9098 46.4131 32.8624L45.9395 32.8151L45.8447 33.7624L46.3184 33.8097C46.4723 33.8216 46.6026 33.8334 46.7328 33.8334C47.0644 33.8334 47.3249 33.7861 47.5262 33.6676L47.9406 33.4427L47.4788 32.6138L47.0644 32.8388Z" fill="#6F6F6F"/>
<path d="M13.281 40.4645C12.9732 40.6658 12.8429 40.6658 12.8311 40.6658H12.3574V41.6131H12.8311C13.1034 41.6131 13.4113 41.4947 13.7784 41.2579L14.181 40.9973L13.6718 40.204L13.281 40.4645Z" fill="#6F6F6F"/>
</g>
</svg>
